HIERARCHY
ROOT Hips
{
  OFFSET 0.0 0.0 0.0
  CHANNELS 6 XPOSITION YPOSITION ZPOSITION ZROTATION XROTATION YROTATION 
  JOINT RightUpLeg
  {
    OFFSET -0.089458 -0.0866707 0.00101652
    CHANNELS 3 ZROTATION XROTATION YROTATION 
    JOINT RightLeg
    {
      OFFSET 0.0 -0.444227 0.013727
      CHANNELS 3 ZROTATION XROTATION YROTATION 
      JOINT RightFoot
      {
        OFFSET 0.00253549 -0.420924 -0.0146059
        CHANNELS 3 ZROTATION XROTATION YROTATION 
        End Site
        {
          OFFSET 0.0004 -0.0441509 0.084991
        }
      }
    }
  }
  JOINT Spine
  {
    OFFSET 0.0 0.118905 0.0
    CHANNELS 3 ZROTATION XROTATION YROTATION 
    JOINT Spine1
    {
      OFFSET 0.0 0.256574 0.00127663
      CHANNELS 3 ZROTATION XROTATION YROTATION 
      End Site
      {
        OFFSET -0.0029 0.2150836 0.02525291
      }
      JOINT RightArm
      {
        OFFSET -0.162727 -0.05365632 0.00102123
        CHANNELS 3 ZROTATION XROTATION YROTATION 
        JOINT RightForeArm
        {
          OFFSET -0.26364 0.00099144 -0.0142434
          CHANNELS 3 ZROTATION XROTATION YROTATION 
          End Site
          {
            OFFSET -0.220324 0.00085362 0.0102216
          }
        }
      }
      JOINT LeftArm
      {
        OFFSET 0.162727 -0.0536563199 0.00102123
        CHANNELS 3 ZROTATION XROTATION YROTATION 
        JOINT LeftForeArm
        {
          OFFSET 0.262597 0.00099144 -0.0142434
          CHANNELS 3 ZROTATION XROTATION YROTATION 
          End Site
          {
            OFFSET 0.220902 0.00085362 0.0102216
          }
        }
      }
    }
  }
  JOINT LeftUpLeg
  {
    OFFSET 0.089458 -0.0866707 0.00101652
    CHANNELS 3 ZROTATION XROTATION YROTATION 
    JOINT LeftLeg
    {
      OFFSET 0.0 -0.444227 0.013727
      CHANNELS 3 ZROTATION XROTATION YROTATION 
      JOINT LeftFoot
      {
        OFFSET -0.00253549 -0.420924 -0.0146059
        CHANNELS 3 ZROTATION XROTATION YROTATION 
        End Site
        {
          OFFSET -0.0004 -0.0441509 0.084991
        }
      }
    }
  }
}
MOTION
Frames: 9
Frame Time: 0.033333
-0.922199 0.990734975774 -1.92347 0.225539996748 0.255038009628 -3.75054011618 1.08150005059 -5.00579996581 -6.60911003384 -1.67717002617 10.9192996289 -6.7401301376 -0.133682836993 -34.1856705318 -0.17660574677 -0.59473002416 -2.37605995492 -0.0150931005649 3.56621999091 8.41206012801 -0.966050003376 73.5968250995 -14.6945697257 11.3324065454 7.35375988216 51.8754984821 5.78750017528 -85.5666701482 -30.8771883696 -13.1823923104 80.5691983174 83.839096741 -90.349202756 1.74635002406 -2.31435004955 2.68533006677 0.111731002537 8.40738998617 7.71390038917 -2.69326589281 -33.6751343819 0.102319768923 
-0.922657 0.990774975774 -1.92403 0.238540007853 0.236320996786 -3.58045004972 1.12459000651 -5.00727016403 -6.54905004604 -1.7271699991 10.9137996191 -6.96027012276 -0.169424429848 -34.1738918706 -0.176581000674 -0.830651001312 -2.13985002875 -0.0482293998024 3.7448800238 8.28840979837 -1.05038000118 73.5289398493 -14.6006973133 11.5771407611 7.29997982641 51.5155987393 5.97547978784 -85.5111065593 -30.785458929 -13.2174661856 77.1156975787 83.8719977623 -86.9425980961 1.77025995503 -2.39918996366 2.6964199461 0.103797997951 8.50744030468 7.53471037629 -2.76364608301 -33.6285115106 0.102264347007 
-0.923062 0.990824975774 -1.9249 0.287747011831 0.196491002105 -3.40817005385 1.11692994936 -5.08217001847 -6.53431988932 -1.77769002691 11.0678997858 -7.18582004462 -0.133326199733 -34.2076500806 -0.176652424176 -1.17250004828 -1.60199995237 -0.0898438014142 3.99755006554 7.87750988677 -1.15738003717 73.4753365247 -14.5842570479 11.8253694723 7.31835986547 51.3944004475 5.9734401226 -85.5046930117 -30.8626093308 -13.0878693225 80.2575982573 83.8039007763 -89.9958975608 1.76177002989 -2.4864200171 2.69421998486 0.0688520020728 8.60329005685 7.38283002104 -2.72251383005 -33.5544620148 0.102176668456 
-0.923563 0.990834975774 -1.92568 0.317007008627 0.250653001501 -3.41057001157 1.09882994806 -5.21928008964 -6.53029007771 -1.73901002531 11.1269997052 -7.16394038739 -0.043448620899 -34.2152213452 -0.176667231813 -1.47724996228 -1.35983997094 -0.0151193007436 4.30812004776 7.66321014024 -1.16653996118 73.5762115885 -15.0454877697 12.0686915464 7.32705981892 52.019700851 5.79592990938 -85.508927729 -30.8268396301 -12.9492045295 73.9336012369 83.8129985882 -83.7391027716 1.79907993823 -2.63296001819 2.73201995927 0.0261523007441 8.68541966652 7.3456302495 -2.59813565838 -33.5514225806 0.102173059928 
-0.924398 0.990824975774 -1.92662 0.377611997504 0.471889979072 -3.52019006544 1.08005994789 -5.53920999235 -6.52484983204 -1.68347002191 11.1503999333 -7.05669019572 -0.225152463554 -34.1994606837 -0.176635322023 -1.77897004705 -1.29095004264 0.100653002663 4.51427991634 7.43596035505 -1.10305004447 73.6407432158 -15.1574892117 12.0897140149 7.38357024279 51.6240997093 5.78200016545 -85.3120270356 -30.7519295304 -12.6885687796 76.469698287 83.8987994246 -86.3483989591 1.84480997571 -2.93779989859 2.78907999993 -0.054609099977 8.71942034821 7.42263038711 -2.51401825021 -33.5161548988 0.102131378432 
-0.924851 0.990804975774 -1.92731 0.428604002052 0.475987985852 -3.55110990492 1.04114996101 -5.62030013261 -6.56332001876 -1.6634200016 11.2166997258 -7.01662003718 -0.411345501402 -34.2325324597 -0.176704344286 -1.91906992681 -1.26853997853 0.171716998851 4.63735010679 7.54253008912 -1.06916003319 73.5058333193 -14.9635835563 12.0659995981 7.40480017828 51.5832005366 5.83856992659 -85.6775582694 -31.0209911723 -12.9217975417 85.0707027918 84.4065966686 -94.4734007504 1.8117399073 -2.90021998433 2.75009989689 -0.0473767000433 8.53431026887 7.4880396937 -2.68476508206 -33.3643436992 0.101952806338 
-0.925192 0.990794975774 -1.92788 0.322304007091 0.5470720057 -3.59502012388 1.15537004056 -5.62268984504 -6.5437899466 -1.56858997533 11.0037002765 -6.9908898608 -0.370135314921 -34.094040129 -0.176415021741 -1.74950994705 -1.03897998857 0.190299995911 4.6741298217 7.19983986167 -1.04621998909 73.5295613965 -15.2399688686 11.8927842932 7.48159967908 52.3615996302 5.51894012532 -85.7520961238 -31.09384197 -12.6433307292 85.5755972054 84.7432020513 -94.9012028189 1.95451007086 -2.93073001247 2.81371990736 -0.0313384987324 8.37812006425 7.44696037471 -2.71076974666 -33.2779725421 0.101851854274 
-0.925362 0.990784975774 -1.92848 0.233453011025 0.468919006865 -3.58828982622 1.2280799656 -5.45465011599 -6.56619979727 -1.46903004305 10.7668002878 -7.01043017825 -0.503168777015 -33.9620501384 -0.176140626896 -1.21879997967 -0.646354995145 0.160444998925 4.12375019017 6.85893999755 -0.91478100264 73.3743931589 -14.9462519513 11.4645006964 7.50262983154 51.8807987089 5.59040012574 -85.5060658797 -31.05917876 -12.3667447801 84.4831972402 85.0086983345 -93.8372984028 2.05382998602 -2.85735990696 2.87996996755 -0.0123679001093 8.347059779 7.37028979373 -2.6635633211 -33.2881734296 0.102820113631 
-0.92586 0.990764975774 -1.92904 0.252240006626 0.420009009395 -3.49910996722 1.22893000399 -5.40940993113 -6.57415013746 -1.44818003684 10.7352004176 -7.11962996204 -0.545486441317 -33.9347806081 -0.1760895739 -1.20089997485 -0.532173015243 0.173309006556 4.08401983354 6.81895991213 -0.892274995716 73.3124979847 -15.2025923659 11.2636000735 7.67520992884 52.5929005714 5.22953988755 -85.6487212107 -31.2723284734 -12.2599129375 86.8959000928 85.1261980788 -95.9755027829 2.03925009346 -2.82937000518 2.84571998395 0.034678301154 8.30604022417 7.3067801335 -2.69818448279 -33.2496511627 0.10382112988 
